PathFileType	4	(X/Y/Z)	Patient4_TMGait_0pt7_02_left_31.trc.trc
DataRate	CameraRate	NumFrames	NumMarkers	Units	OrigDataRate	OrigDataStartFrame	OrigNumFrames
87.500000000000	87.500000000000	4	33	mm	87.500000000000	89	       141
Frame#	Time	Sacral			L.Shoulder			Chest			R.Shoulder			Neck			R.ASIS			L.ASIS			R.Thigh.Superior			R.Thigh.Lateral			R.Thigh.Inferior			R.Patella			L.Thigh.Superior			L.Thigh.Lateral			L.Thigh.Inferior			L.Patella			L.Shank.Superior			L.Shank.Lateral			L.Shank.Inferior			R.Shank.Superior			R.Shank.Lateral			R.Shank.Inferior			R.Heel			R.Midfoot.Superior			R.Midfoot.Lateral			R.Toe			L.Heel			L.Midfoot.Lateral			L.Midfoot.Superior			L.Toe			L.Elbow			L.Wrist			R.Elbow			R.Wrist			
		X1	Y1	Z1	X2	Y2	Z2	X3	Y3	Z3	X4	Y4	Z4	X5	Y5	Z5	X6	Y6	Z6	X7	Y7	Z7	X8	Y8	Z8	X9	Y9	Z9	X10	Y10	Z10	X11	Y11	Z11	X12	Y12	Z12	X13	Y13	Z13	X14	Y14	Z14	X15	Y15	Z15	X16	Y16	Z16	X17	Y17	Z17	X18	Y18	Z18	X19	Y19	Z19	X20	Y20	Z20	X21	Y21	Z21	X22	Y22	Z22	X23	Y23	Z23	X24	Y24	Z24	X25	Y25	Z25	X26	Y26	Z26	X27	Y27	Z27	X28	Y28	Z28	X29	Y29	Z29	X30	Y30	Z30	X31	Y31	Z31	X32	Y32	Z32	X33	Y33	Z33	

89	36.435714285714	870.070407772969	1001.469048035895	492.308582173225	1058.472690757085	1427.304786861587	304.952311411454	1162.983836479314	1351.622483856586	463.243203251617	1084.174211654143	1431.325607095487	636.879021393356	1066.218729847738	1484.959675863995	457.532245702003	1100.159615288205	935.104881675316	605.910573622396	1073.723047005350	945.881180275857	329.220518536407	1165.144053496641	751.215635604533	567.333201457371	1104.852624853232	632.670253675123	632.293706108108	1184.224623815082	590.970277867652	547.264117448506	1199.903175581394	499.981955715345	555.254398250952	1094.579696660363	725.900871358722	348.785287589167	985.833002754351	625.302248771244	287.178500209979	1063.072447269214	528.973626367753	337.283188414834	1046.167468573192	447.129496953510	334.409354863580	976.637373792928	394.638740852835	331.633639167574	834.806348321501	351.163384980681	288.472101885360	822.653933254213	222.661688635753	345.482175572836	1173.540953982345	409.603097624423	564.896579223232	1109.745000667073	303.314701387545	629.686984972976	1153.334377092441	209.513022530107	566.834296782681	1025.226511929112	43.589804368325	541.952780815198	1196.251647305962	97.477783452190	574.613285923468	1109.306152007801	37.732426843002	615.072687583771	1317.450746023392	44.234008216399	602.221622601226	630.899587936732	151.946883257983	384.915311137327	692.208766053774	98.308141000355	314.618918497567	795.177869778384	115.090350249422	336.482134445888	879.285726660778	32.571991792451	331.311993236017	1086.668002528189	1102.200079430217	145.485420952519	1324.234022327584	1060.239533291873	232.855655097267	986.845572377072	1099.003510103419	758.054384104709	1018.339870391176	838.568696873823	741.372966124031	
90	36.447142857143	871.421245182416	1002.666203494646	495.661454805754	1058.874621791894	1428.509842925421	307.149849457111	1164.255451940190	1352.861882152067	464.867788695992	1086.323797019637	1432.516684718398	638.827018125213	1067.391538110750	1486.059616494794	459.676470792066	1101.836047132574	936.295171664809	608.414217660361	1074.115683894700	946.907390637991	331.705799524511	1164.739186618458	750.284612965000	571.133032333108	1102.010077874369	632.656317723830	634.970916133303	1181.459400962654	590.135184377333	550.326454754956	1195.829487366792	499.097092239873	557.772101979768	1100.002574045240	727.923814279535	350.952020885121	994.803100112486	625.079609893499	288.314867511462	1074.629618942346	530.043556098820	338.254699079594	1058.453120189785	447.051238593968	334.434462724249	987.032222964629	395.091050276828	331.674214336567	843.624632679264	356.713755635264	288.588680975511	827.465184976220	228.349317715617	344.703474091159	1168.659935072656	409.019161905327	566.899325578147	1103.839825897501	303.042836570847	631.014749988320	1146.675059498605	209.136108371663	567.768859003204	1017.421782232879	43.641054806237	542.120981438689	1188.470385887306	97.445222885898	575.026137493481	1101.458149539475	37.704414864935	615.223687099084	1309.640412452005	43.907285471010	602.561602599910	633.784012606760	168.026366393637	383.933684850428	691.420315995408	109.921292159200	313.995152621122	795.243658627994	119.771707181976	335.710188221881	872.344364420429	30.894510465935	331.120345629779	1078.871604734199	1101.010173818701	150.102567901560	1315.301579251644	1042.723812572517	232.818991396330	994.398623265063	1098.530568829885	760.920230695481	1038.060628139079	840.100370739387	741.831706252492	
91	36.458571428571	872.501428168064	1003.844366353932	498.903194030579	1059.101749782885	1429.492737832498	309.244862872324	1165.480667658412	1353.902587480867	466.342396178207	1088.582750036173	1433.530291417096	640.681371392831	1068.490682167936	1487.012063567438	461.767098329646	1103.266174767510	937.296375877073	610.757928582037	1074.504876575068	947.926507451284	334.214215447742	1163.972523632049	749.237287398991	575.124467487603	1098.682557053875	632.572924688812	637.688812458560	1178.297008064136	589.244863520467	553.523657954681	1191.323506019055	498.210620117881	560.433311946477	1105.490461983477	730.158280530280	353.212971568959	1004.166492172004	625.064174553845	289.426293350950	1086.441735238665	531.511766096416	339.544878630672	1071.145535508990	447.405009037323	334.997037896745	998.049565011717	395.814631028729	332.103100507152	853.400771672212	362.336814773059	288.727935689984	833.169444911694	234.372530929113	344.253657360389	1163.431430426068	408.435716144170	568.998022082430	1097.611147225427	302.732191499186	632.389378370870	1139.849278655824	208.768492819213	568.778828945821	1009.557385749462	43.690654134549	542.283395976411	1180.654341498935	97.352587210865	575.455145653194	1093.539690062047	37.653898137694	615.372314572466	1301.771279458011	43.492872297641	602.900699833066	638.151829826667	184.459399906350	383.111387238256	691.975626631979	122.309887196391	313.408916749494	796.263730777456	125.251551867618	335.101196075571	866.115794752649	29.301228736384	330.731008699586	1071.336301190187	1099.681909152161	154.985061749250	1305.290175963821	1024.159730454119	232.396240850081	1001.916959425658	1098.141738868980	763.919377949863	1058.368147751613	842.456878488703	742.374735591846	
92	36.470000000000	873.294786993438	1005.004885106626	501.997520768264	1059.175843325312	1430.248743030808	311.215007768459	1166.643003450700	1354.716692286901	467.654852388610	1090.948567055803	1434.365480363464	642.428231580490	1069.545005013688	1487.827854749758	463.784113144903	1104.426403061607	938.133121942992	612.931575082370	1074.872037078302	948.919585048719	336.722257543409	1162.889580217894	748.177259424358	579.124372507540	1095.050510312463	632.486472615203	640.371829946475	1174.842263226791	588.358058509633	556.725986440739	1186.501475642947	497.361454746017	563.148171626442	1110.922760472005	732.656593902094	355.577194959092	1013.778943911146	625.355433334421	290.514449765234	1098.361757694077	533.464935417147	341.113685082929	1084.130075914264	448.270507716455	336.010379712522	1009.567880716606	396.880967994444	332.869620180431	863.981002703342	367.994015541847	288.931590101747	839.754883513407	240.642582237040	344.140599414131	1157.960927179998	407.883074110569	571.122100911575	1091.166763146464	302.431350369803	633.782833160903	1132.910211633134	208.434195278542	569.830867876027	1001.641052173554	43.759888392752	542.448194445290	1172.811038494933	97.222172170686	575.887005127100	1085.563688493147	37.597931023293	615.521734422966	1293.851813606933	43.019964201760	603.228716272014	643.975451541849	200.764252588033	382.556559499923	693.990515016524	135.126577496772	312.916776395751	798.397057727952	131.443674569623	334.642722856569	860.978329794870	28.033370258882	330.089221751381	1064.117171045695	1098.177731615500	160.120422279117	1294.033096188194	1004.751594148990	231.587064566103	1009.496636677532	1097.786474373219	767.000191089546	1079.147160484500	845.668694725074	742.941460657676	
